<svg width="18" height="18" viewBox="0 0 18 18" fill="none" xmlns="http://www.w3.org/2000/svg">
<g id="Search">
<path id="Vector" fill-rule="evenodd" clip-rule="evenodd" d="M7.2 3.60001C6.24522 3.60001 5.32955 3.97929 4.65442 4.65442C3.97929 5.32955 3.6 6.24523 3.6 7.20001C3.6 8.15479 3.97929 9.07046 4.65442 9.74559C5.32955 10.4207 6.24522 10.8 7.2 10.8C8.15478 10.8 9.07046 10.4207 9.74559 9.74559C10.4207 9.07046 10.8 8.15479 10.8 7.20001C10.8 6.24523 10.4207 5.32955 9.74559 4.65442C9.07046 3.97929 8.15478 3.60001 7.2 3.60001ZM1.8 7.20001C1.79989 6.35014 2.00038 5.51225 2.38516 4.75447C2.76993 3.9967 3.32813 3.34044 4.01436 2.83908C4.70059 2.33771 5.49546 2.0054 6.33433 1.86916C7.17321 1.73291 8.0324 1.7966 8.84202 2.05502C9.65164 2.31345 10.3888 2.75932 10.9937 3.35637C11.5985 3.95343 12.0538 4.68481 12.3227 5.49103C12.5915 6.29725 12.6663 7.15554 12.5409 7.9961C12.4155 8.83667 12.0935 9.63577 11.601 10.3284L15.9363 14.6637C16.1002 14.8334 16.191 15.0608 16.1889 15.2968C16.1869 15.5327 16.0922 15.7585 15.9253 15.9253C15.7585 16.0922 15.5327 16.1869 15.2968 16.1889C15.0608 16.191 14.8334 16.1003 14.6637 15.9363L10.3293 11.6019C9.52143 12.1764 8.57102 12.5174 7.58221 12.5875C6.59341 12.6577 5.60437 12.4543 4.72347 11.9997C3.84258 11.5451 3.10382 10.8567 2.58815 10.0101C2.07249 9.16351 1.79981 8.1913 1.8 7.20001Z" fill="#909090"/>
</g>
</svg>
